<svg xmlns="http://www.w3.org/2000/svg" viewBox="0 0 64 64">
  <defs>
    <linearGradient id="blue" x1="0" y1="0" x2="0" y2="1">
      <stop offset="0%" stop-color="#2bb3e6"/>
      <stop offset="100%" stop-color="#1f5fa6"/>
    </linearGradient>
    <linearGradient id="green" x1="0" y1="0" x2="0" y2="1">
      <stop offset="0%" stop-color="#6dbb45"/>
      <stop offset="100%" stop-color="#2e7d32"/>
    </linearGradient>
    <linearGradient id="orange" x1="0" y1="0" x2="0" y2="1">
      <stop offset="0%" stop-color="#f5a623"/>
      <stop offset="100%" stop-color="#d97a00"/>
    </linearGradient>
  </defs>
  <!-- Pin -->
  <path d="M32 2C20 2 10 11 10 23c0 16 22 39 22 39s22-23 22-39C54 11 44 2 32 2z"
        fill="url(#blue)"/>
  <!-- Inner white -->
  <path d="M32 8c9 0 16 7 16 15 0 10-16 28-16 28S16 33 16 23c0-8 7-15 16-15z"
        fill="#ffffff"/>
  <!-- House -->
  <path d="M24 28h16v12H24z" fill="url(#blue)"/>
  <path d="M22 28l10-8 10 8" fill="none" stroke="url(#orange)" stroke-width="3" stroke-linecap="round"/>
  <!-- Window -->
  <rect x="29" y="31" width="3" height="3" fill="#ffd54f"/>
  <rect x="33" y="31" width="3" height="3" fill="#ffd54f"/>
  <!-- Path -->
  <path d="M22 40c8-4 12-2 20 0" fill="none" stroke="url(#green)" stroke-width="3" stroke-linecap="round"/>
</svg>